<svg xmlns="http://www.w3.org/2000/svg" viewBox="0 0 150 38.14"><defs><style>.cls-1{fill:#990;}.cls-1,.cls-3{fill-rule:evenodd;}.cls-2,.cls-3{fill:#036;}</style></defs><title>OVC Logo</title><g id="Layer_2" data-name="Layer 2"><g id="OVC_Logo" data-name="OVC Logo"><path class="cls-1" d="M62.43,10C31.39-11.75,8.31,5.21,0,30.17l.25-.52C7.8,7,32.75-2.66,60.49,16.75L62.43,10Z"/><path class="cls-2" d="M75.5,22.25a7.44,7.44,0,0,0,1.94-5.43,7.38,7.38,0,0,0-1.94-5.36,7.77,7.77,0,0,0-10.41,0,7.46,7.46,0,0,0-1.93,5.39,7.45,7.45,0,0,0,1.92,5.37,6.73,6.73,0,0,0,5.13,2,7,7,0,0,0,5.29-2ZM67.37,20.8a6.57,6.57,0,0,1-1.1-4,6.5,6.5,0,0,1,1.1-4,3.62,3.62,0,0,1,5.85,0,6.39,6.39,0,0,1,1.11,3.93,6.58,6.58,0,0,1-1.1,4,3.51,3.51,0,0,1-3,1.48,3.4,3.4,0,0,1-2.88-1.5Zm15.52,3.09V17.32c.82-1.26,1.68-1.9,2.57-1.9s1.18.6,1.18,1.78v6.69h2.82V16.51a3.45,3.45,0,0,0-.81-2.42,2.85,2.85,0,0,0-2.21-.88,4.07,4.07,0,0,0-3.55,2.2v-2H80.07V23.89Zm18.47-2.33a9.48,9.48,0,0,1-3.19.65,2.94,2.94,0,0,1-3.28-3h6.47a7.9,7.9,0,0,0-1-4.58A3.88,3.88,0,0,0,97,13.21a4.76,4.76,0,0,0-3.66,1.48,5.47,5.47,0,0,0-1.38,3.9,5.41,5.41,0,0,0,1.51,4.05,5.64,5.64,0,0,0,4.13,1.49,13.59,13.59,0,0,0,3.8-.59v-2ZM96.87,15c1.15,0,1.72.89,1.72,2.67H94.85c.18-1.78.86-2.67,2-2.67Zm14,8.92,5-14.08h-2.11l-3.9,10.89-4-10.89h-3.13L108,23.89Zm9.8,0V13.45h-2.81V23.89Zm0-12.2V9.34h-2.81v2.35Zm12,9.87a9.48,9.48,0,0,1-3.19.65,2.94,2.94,0,0,1-3.28-3h6.47a7.9,7.9,0,0,0-1.05-4.58,3.88,3.88,0,0,0-3.35-1.44,4.77,4.77,0,0,0-3.66,1.48,5.47,5.47,0,0,0-1.38,3.9,5.41,5.41,0,0,0,1.51,4.05,5.65,5.65,0,0,0,4.13,1.49,13.59,13.59,0,0,0,3.8-.59v-2ZM128.22,15c1.15,0,1.73.89,1.73,2.67H126.2c.18-1.78.86-2.67,2-2.67Zm11.95,8.92,2.13-7.16,1.9,7.16h2.7L150,13.45h-2l-2.21,7.35-2-7.35h-2.44l-2.18,7.31-2.06-7.31h-2.61l2.9,10.44Z"/><path class="cls-2" d="M80.31,37.37V36.14a6.62,6.62,0,0,1-3.07.88,3.31,3.31,0,0,1-2.63-1.12,4.48,4.48,0,0,1-1-3,4.85,4.85,0,0,1,.91-3.15,3.09,3.09,0,0,1,2.54-1.11,10.69,10.69,0,0,1,3.21.72V28a13.52,13.52,0,0,0-3.19-.44,4.79,4.79,0,0,0-3.68,1.39,5.53,5.53,0,0,0-1.31,3.92,5.57,5.57,0,0,0,1.28,3.92,4.71,4.71,0,0,0,3.65,1.39,7,7,0,0,0,3.26-.77ZM88,37a4.11,4.11,0,0,0,1-2.86,4.06,4.06,0,0,0-1-2.82,3.75,3.75,0,0,0-5.18,0,4.07,4.07,0,0,0-1,2.83,4.09,4.09,0,0,0,1,2.83,3.26,3.26,0,0,0,2.54,1.06A3.43,3.43,0,0,0,88,37Zm-4.69-2.85c0-1.91.7-2.86,2.1-2.86s2.11.95,2.11,2.85S86.79,37,85.36,37s-2.07-.95-2.07-2.87Zm9.09,3.71v-5c.78-1,1.5-1.49,2.18-1.49s1,.43,1,1.28v5.18h1.35v-5a3.06,3.06,0,0,1,2.2-1.48c.67,0,1,.42,1,1.27v5.18h1.35V32.49a2.26,2.26,0,0,0-.54-1.62,2,2,0,0,0-1.52-.58,2.84,2.84,0,0,0-2.49,1.57,2,2,0,0,0-2-1.56,2.92,2.92,0,0,0-2.53,1.56v-1.4H91v7.42Zm13.07,0v-5c.78-1,1.5-1.49,2.18-1.49s1,.43,1,1.28v5.18H110v-5a3.06,3.06,0,0,1,2.19-1.48c.67,0,1,.42,1,1.27v5.18h1.35V32.49a2.26,2.26,0,0,0-.54-1.62,2,2,0,0,0-1.52-.58A2.84,2.84,0,0,0,110,31.86a2,2,0,0,0-2-1.56,2.92,2.92,0,0,0-2.53,1.56v-1.4H104.1v7.42Zm17.16-1.3a6.15,6.15,0,0,1-2.06.45c-1.53,0-2.4-.88-2.59-2.64h4.68V34a4.38,4.38,0,0,0-.74-2.72,2.46,2.46,0,0,0-2.08-1,2.91,2.91,0,0,0-2.33,1.08,4.13,4.13,0,0,0-.92,2.77,4,4,0,0,0,1,2.83,3.55,3.55,0,0,0,2.68,1.09,8.29,8.29,0,0,0,2.31-.41V36.58Zm-2.86-5.28c1,0,1.54.69,1.54,2.07H118c.12-1.38.69-2.07,1.73-2.07Zm6.57,6.58V33a2.48,2.48,0,0,1,2.14-1.52,1.92,1.92,0,0,1,.61.12V30.33l-.43,0a2.51,2.51,0,0,0-2.32,1.56v-1.4H125v7.42Zm9.53-.22V36.5A4.4,4.4,0,0,1,134,37a2.1,2.1,0,0,1-1.68-.77,3.07,3.07,0,0,1-.64-2,3.2,3.2,0,0,1,.62-2.06,2,2,0,0,1,1.66-.78,6.7,6.7,0,0,1,1.86.34V30.54a9,9,0,0,0-1.94-.24,3.67,3.67,0,0,0-2.74,1,3.9,3.9,0,0,0-1,2.82,4.07,4.07,0,0,0,1,2.81,3.21,3.21,0,0,0,2.5,1.12,8.11,8.11,0,0,0,2.25-.4Zm7.46-1.08a6.25,6.25,0,0,1-2.07.45c-1.53,0-2.39-.88-2.59-2.64h4.69V34a4.38,4.38,0,0,0-.73-2.72,2.47,2.47,0,0,0-2.08-1,2.93,2.93,0,0,0-2.34,1.08,4.13,4.13,0,0,0-.91,2.77,4,4,0,0,0,1,2.83A3.54,3.54,0,0,0,141,38.06a8.35,8.35,0,0,0,2.32-.41V36.58Zm-2.87-5.28c1,0,1.55.69,1.55,2.07h-3.27c.11-1.38.69-2.07,1.72-2.07Z"/><path class="cls-3" d="M10,21.28c22.48,20.55,40.65,11.61,48-5.38l-.22.34c-6.69,15.43-25.95,18.74-46,.38L10,21.28Z"/></g></g></svg>